# xmcd
#
# Track frame offsets: 
#        183
#        11613
#        23973
#        32463
#        45348
#        55893
#        65520
#        75520
#        85373
#        96093
#        104958
#        116478
#        127288
#        141070
#        152170
#        164148
#        177038
#        187290
#        197608
#        208023
#        222510
#        234330
#        244330
#        257923
#
# Disc length: 3583 seconds
#
# Revision: 0
# Processed by: cddbd v1.5.1PL0 Copyright (c) Steve Scherf et al.
# Submitted via: ExactAudioCopy v0.90b4
#
DISCID=610dfd18
DTITLE=Lazy Lester - I'm A Lover Not A Fighter
DYEAR=1994
DGENRE=Blues
TTITLE0=I'm A Lover Not A Fighter
TTITLE1=Sugar Coated Love
TTITLE2=Lester's Stomp
TTITLE3=I Told My Little Woman
TTITLE4=Tell Me Pretty Baby
TTITLE5=Whoa Now
TTITLE6=I Hear You Knockin'
TTITLE7=Through The Goodness Of My Heart
TTITLE8=I Love You, I Need You
TTITLE9=Late, Late In The Evening
TTITLE10=A Real Combination For Love
TTITLE11=Bloodstains on the Wall
TTITLE12=You Got Me Where You Want Me
TTITLE13=I'm So Tired
TTITLE14=Patrol Blues
TTITLE15=I'm So Glad
TTITLE16=Sad City Blues
TTITLE17=If You Think I've Lost You
TTITLE18=I Made Up My Mind
TTITLE19=Lonesome Highway Blues
TTITLE20=You're Gonna Ruin Me Baby
TTITLE21=The Same Thing Could Happen To You
TTITLE22=Take Me In Your Arms
TTITLE23=You Better Listen To What I Said
EXTD=
EXTT0=
EXTT1=
EXTT2=
EXTT3=
EXTT4=
EXTT5=
EXTT6=
EXTT7=
EXTT8=
EXTT9=
EXTT10=
EXTT11=
EXTT12=
EXTT13=
EXTT14=
EXTT15=
EXTT16=
EXTT17=
EXTT18=
EXTT19=
EXTT20=
EXTT21=
EXTT22=
EXTT23=
PLAYORDER=
